<?xml version="1.0" encoding="iso-8859-1"?>
<!-- Generator: Adobe Illustrator 19.0.0, SVG Export Plug-In . SVG Version: 6.00 Build 0)  -->
<svg version="1.1" id="Capa_1" xmlns="http://www.w3.org/2000/svg" xmlns:xlink="http://www.w3.org/1999/xlink" x="0px" y="0px"
	 viewBox="0 0 512 512" style="enable-background:new 0 0 512 512;" xml:space="preserve">
<path style="fill:#D7D9CC;" d="M40.354,467.881l33.37,33.37c14.332,14.332,37.568,14.332,51.899,0l130.053-130.053
	c9.927-9.927,9.927-26.021,0-35.948l-91.189-91.189c-9.927-9.927-26.021-9.927-35.948,0l-88.186,88.186
	C2.899,369.702,2.899,430.427,40.354,467.881z"/>
<path style="fill:#BDBFB4;" d="M255.676,335.25l-20.604-20.604c9.927,9.927,9.927,26.021,0,35.948L105.019,480.647
	c-14.332,14.332-37.568,14.332-51.899,0l20.604,20.604c14.332,14.332,37.568,14.332,51.899,0l130.053-130.053
	C265.603,361.271,265.603,345.177,255.676,335.25z"/>
<path style="fill:#FA7578;" d="M195.49,304.249l41.971-1.223L494.508,45.977c6.972-6.972,6.972-18.277,0-25.25L479.011,5.229
	c-6.972-6.972-18.277-6.972-25.25,0L196.712,262.278L195.49,304.249z"/>
<path style="fill:#F3F5E6;" d="M138.286,361.452L138.286,361.452c11.253,11.253,29.496,11.253,40.748,0l58.427-58.427
	l-40.748-40.748l-58.427,58.427C127.033,331.956,127.033,350.2,138.286,361.452z"/>
<g>
</g>
<g>
</g>
<g>
</g>
<g>
</g>
<g>
</g>
<g>
</g>
<g>
</g>
<g>
</g>
<g>
</g>
<g>
</g>
<g>
</g>
<g>
</g>
<g>
</g>
<g>
</g>
<g>
</g>
</svg>
