<?xml version="1.0" encoding="iso-8859-1"?>
<!-- Generator: Adobe Illustrator 19.0.0, SVG Export Plug-In . SVG Version: 6.00 Build 0)  -->
<svg version="1.1" id="Capa_1" xmlns="http://www.w3.org/2000/svg" xmlns:xlink="http://www.w3.org/1999/xlink" x="0px" y="0px"
	 viewBox="0 0 512 512" style="enable-background:new 0 0 512 512;" xml:space="preserve">
<rect x="118.398" y="337.322" style="fill:#D7D9CC;" width="24.616" height="162.635"/>
<path style="fill:#B1B3A8;" d="M143.015,512h-24.616c-2.383,0-4.713-0.707-6.694-2.031c-25.048-16.739-46.438-57.296-37.574-86.516
	c3.219-10.61,13.251-28.409,44.268-28.409h24.616c31.016,0,41.048,17.801,44.267,28.409c8.865,29.22-12.525,69.775-37.573,86.516
	C147.728,511.293,145.399,512,143.015,512z M122.294,487.906h16.827c17.177-13.454,29.857-41.796,25.106-57.458
	c-3.432-11.31-16.348-11.31-21.21-11.31H118.4c-17.78,0-20.273,8.218-21.211,11.31C92.436,446.11,105.116,474.452,122.294,487.906z"
	/>
<g>
	<path style="fill:#F3F5E6;" d="M110.781,59.047c19.675-16.561,39.758-27.138,55.474-33.688c1.799-0.749,3.61-1.459,5.434-2.126
		l36.76-3.489l5.689,39.303l-51.679,52.388l-56.075,16.732L110.781,59.047z"/>
	<path style="fill:#F3F5E6;" d="M130.706,302.18L84.6,323.597c0,18.667,15.132,33.799,33.798,33.799h24.616
		c18.667,0,33.799-15.132,33.799-33.799L130.706,302.18z"/>
</g>
<path style="fill:#D7D9CC;" d="M115.505,323.597l30.654-14.239l-15.453-7.178L84.6,323.597c0,18.667,15.132,33.799,33.798,33.799
	h24.616c1.061,0,2.109-0.056,3.144-0.15C128.969,355.658,115.505,341.203,115.505,323.597z"/>
<path style="fill:#FA7578;" d="M441.761,91.879c-47.913-23.357-117.163-57.117-157.015-76.545C264.047,5.244,241.323,0,218.296,0
	l0,0c-16.488,0-32.858,2.651-48.43,7.925c-3.748,1.269-5.174,5.826-2.824,9.009l7.785,10.547c4.982,6.75,3.549,16.261-3.201,21.243
	l-32.097,23.69c-6.75,4.982-16.26,3.549-21.243-3.201l-12.733-17.25c-2.046-2.772-6.02-3.165-8.6-0.881
	C54.52,88.66,15.526,152.72,19.406,260.714c0.57,15.857,6.911,30.966,17.818,42.49c12.32,13.017,29.454,20.392,47.377,20.392
	h320.318c38.499,0,71.589-27.301,78.891-65.102c3.861-19.989,7.123-46.036,8.922-79.948
	C494.668,142.039,474.624,107.9,441.761,91.879z M402.824,175.209c-6.956,14.269-21.252,22.569-36.125,22.569
	c-5.907,0-11.901-1.308-17.568-4.07l-101.32-49.394c-19.935-9.719-28.218-33.758-18.499-53.693
	c9.72-19.936,33.759-28.216,53.693-18.499l101.32,49.394C404.26,131.235,412.542,155.274,402.824,175.209z"/>
<g>
	<path style="fill:#F9545B;" d="M68.128,303.205c-10.907-11.524-17.248-26.633-17.818-42.49
		C46.844,164.231,77.6,102.819,114.455,64.026l-8.903-12.061c-2.046-2.772-6.02-3.165-8.6-0.88
		C54.52,88.663,15.526,152.722,19.406,260.716c0.57,15.857,6.911,30.966,17.818,42.49c12.32,13.017,29.454,20.392,47.377,20.392
		h30.905C97.582,323.597,80.449,316.222,68.128,303.205z"/>
	<path style="fill:#F9545B;" d="M415.593,297.859h-52.204c-4.268,0-7.726-3.459-7.726-7.726c0-4.267,3.458-7.726,7.726-7.726h52.204
		c4.268,0,7.726,3.459,7.726,7.726C423.319,294.4,419.86,297.859,415.593,297.859z"/>
	<path style="fill:#F9545B;" d="M415.593,273.264h-52.204c-4.268,0-7.726-3.459-7.726-7.726c0-4.267,3.458-7.726,7.726-7.726h52.204
		c4.268,0,7.726,3.459,7.726,7.726C423.319,269.804,419.86,273.264,415.593,273.264z"/>
	<path style="fill:#F9545B;" d="M415.593,248.667h-52.204c-4.268,0-7.726-3.459-7.726-7.726c0-4.267,3.458-7.726,7.726-7.726h52.204
		c4.268,0,7.726,3.459,7.726,7.726C423.319,245.208,419.86,248.667,415.593,248.667z"/>
</g>
<g>
	<path style="fill:#3B484A;" d="M89.82,267.074c-4.268,0-7.726-3.459-7.726-7.726V246.72c0-4.267,3.458-7.726,7.726-7.726
		s7.726,3.459,7.726,7.726v12.628C97.546,263.615,94.088,267.074,89.82,267.074z"/>
	<path style="fill:#3B484A;" d="M229.366,267.074c-4.268,0-7.726-3.459-7.726-7.726V246.72c0-4.267,3.458-7.726,7.726-7.726
		c4.268,0,7.726,3.459,7.726,7.726v12.628C237.092,263.615,233.634,267.074,229.366,267.074z"/>
	<path style="fill:#3B484A;" d="M159.594,273.815c-8.941,0-17.338-3.74-23.038-10.261c-2.809-3.213-2.481-8.094,0.731-10.902
		c3.213-2.808,8.094-2.482,10.902,0.732c2.766,3.164,6.923,4.978,11.404,4.978s8.638-1.814,11.403-4.978
		c2.808-3.213,7.688-3.541,10.902-0.731c3.212,2.808,3.541,7.689,0.731,10.902C176.931,270.075,168.534,273.815,159.594,273.815z"/>
</g>
<g>
</g>
<g>
</g>
<g>
</g>
<g>
</g>
<g>
</g>
<g>
</g>
<g>
</g>
<g>
</g>
<g>
</g>
<g>
</g>
<g>
</g>
<g>
</g>
<g>
</g>
<g>
</g>
<g>
</g>
</svg>
