<?xml version="1.0" encoding="iso-8859-1"?>
<!-- Generator: Adobe Illustrator 19.0.0, SVG Export Plug-In . SVG Version: 6.00 Build 0)  -->
<svg version="1.1" id="Capa_1" xmlns="http://www.w3.org/2000/svg" xmlns:xlink="http://www.w3.org/1999/xlink" x="0px" y="0px"
	 viewBox="0 0 512 512" style="enable-background:new 0 0 512 512;" xml:space="preserve">
<path style="fill:#FB8D4B;" d="M282.6,62.51c0,0-18.566-30.912-18.566-62.51H247.97c0,31.599-18.566,62.51-18.566,62.51
	l26.597,20.436L282.6,62.51z"/>
<path style="fill:#E86D24;" d="M282.6,62.51h-53.195c-10.083,0-18.258,8.174-18.258,18.258v40.686l44.856,18.678l44.856-18.678
	V80.768C300.858,70.685,292.683,62.51,282.6,62.51z"/>
<path style="fill:#FB8D4B;" d="M331.829,138.398c-6.761-10.557-18.435-16.943-30.971-16.943h-89.712
	c-12.536,0-24.21,6.386-30.971,16.943l-9.757,15.233l85.584,18.787l85.584-18.787L331.829,138.398z"/>
<path style="fill:#E86D24;" d="M201.323,153.631l9.757-15.233c6.761-10.557,18.435-16.943,30.971-16.943h-30.905
	c-12.536,0-24.21,6.386-30.971,16.943l-9.757,15.233l85.584,18.787l15.453-3.392L201.323,153.631z"/>
<path style="fill:#F3F5E6;" d="M341.586,153.631H170.417c-29.562,0-53.518,23.967-53.518,53.518v30.87l139.102,31.943
	l139.102-31.942v-30.871C395.104,177.598,371.147,153.631,341.586,153.631z"/>
<path style="fill:#D7D9CC;" d="M178.71,238.019v-30.87c0-29.552,23.957-53.519,53.518-53.519h-61.811
	c-29.562,0-53.518,23.967-53.518,53.519v30.87l139.102,31.943l30.905-7.097L178.71,238.019z"/>
<path style="fill:#F3F5E6;" d="M256.002,392.578l-139.102,35.033v30.87c0,29.552,23.957,53.518,53.518,53.518h171.168
	c29.562,0,53.518-23.967,53.518-53.518v-30.87L256.002,392.578z"/>
<path style="fill:#D7D9CC;" d="M178.71,458.481v-30.87l108.197-27.249l-30.905-7.784l-139.102,35.033v30.87
	c0,29.552,23.957,53.519,53.518,53.519h61.811C202.667,512,178.71,488.033,178.71,458.481z"/>
<path style="fill:#FEEA61;" d="M170.417,470.785c-6.784,0-12.302-5.52-12.302-12.303V207.15c0-6.784,5.52-12.302,12.302-12.302
	h171.168c6.784,0,12.303,5.52,12.303,12.302v251.332c0,6.784-5.52,12.303-12.303,12.303H170.417V470.785z"/>
<g>
	<path style="fill:#FEC300;" d="M286.907,400.361l-30.905-7.784l-97.887,24.653v41.25c0,6.784,5.52,12.303,12.302,12.303h9.73
		c-0.93-3.952-1.438-8.067-1.438-12.303v-30.87L286.907,400.361z"/>
	<path style="fill:#FEC300;" d="M180.147,194.846h-9.73c-6.784,0-12.302,5.519-12.302,12.302v40.335l97.887,22.478l30.905-7.097
		L178.71,238.018v-30.87C178.71,202.914,179.217,198.799,180.147,194.846z"/>
</g>
<rect x="116.896" y="238.023" style="fill:#FB8D4B;" width="278.2" height="189.595"/>
<rect x="116.896" y="238.023" style="fill:#E86D24;" width="61.811" height="189.595"/>
<path style="fill:#FEEA61;" d="M256.002,402.367c69.366,0,92.511-66.074,0-139.102C163.49,336.293,186.635,402.367,256.002,402.367z
	"/>
<path style="fill:#FEC300;" d="M269.394,390.005c-62.855,0-87.759-54.253-23.048-118.773
	c-81.085,69.797-57.176,131.135,9.656,131.135c24.546,0,43.292-8.282,53.186-22.209C298.955,386.476,285.41,390.005,269.394,390.005
	z"/>
<g>
	<path style="fill:#3B484A;" d="M223.459,352.895c-4.267,0-7.726-3.459-7.726-7.726v-4.964c0-4.267,3.459-7.726,7.726-7.726
		s7.726,3.459,7.726,7.726v4.964C231.186,349.435,227.726,352.895,223.459,352.895z"/>
	<path style="fill:#3B484A;" d="M288.544,352.895c-4.267,0-7.726-3.459-7.726-7.726v-4.964c0-4.267,3.459-7.726,7.726-7.726
		c4.267,0,7.726,3.459,7.726,7.726v4.964C296.27,349.435,292.811,352.895,288.544,352.895z"/>
	<path style="fill:#3B484A;" d="M256.002,355.544c-5.112,0-9.994-1.88-13.394-5.159c-3.072-2.962-3.162-7.853-0.2-10.925
		c2.962-3.072,7.852-3.162,10.925-0.2c0.32,0.309,1.243,0.831,2.669,0.831c1.427,0,2.35-0.522,2.669-0.831
		c3.074-2.962,7.964-2.871,10.925,0.2c2.962,3.072,2.872,7.963-0.2,10.925C265.995,353.663,261.113,355.544,256.002,355.544z"/>
</g>
<g>
</g>
<g>
</g>
<g>
</g>
<g>
</g>
<g>
</g>
<g>
</g>
<g>
</g>
<g>
</g>
<g>
</g>
<g>
</g>
<g>
</g>
<g>
</g>
<g>
</g>
<g>
</g>
<g>
</g>
</svg>
