<?xml version="1.0" encoding="iso-8859-1"?>
<!-- Generator: Adobe Illustrator 19.0.0, SVG Export Plug-In . SVG Version: 6.00 Build 0)  -->
<svg version="1.1" id="Capa_1" xmlns="http://www.w3.org/2000/svg" xmlns:xlink="http://www.w3.org/1999/xlink" x="0px" y="0px"
	 viewBox="0 0 512.002 512.002" style="enable-background:new 0 0 512.002 512.002;" xml:space="preserve">
<polygon style="fill:#A8503C;" points="94.695,355.786 139.961,318.644 136.529,263.963 84.759,246.028 36.861,279.707 
	43.832,334.43 "/>
<polygon style="fill:#993E29;" points="417.306,355.786 372.04,318.644 375.473,263.963 427.243,246.028 475.141,279.707 
	468.17,334.43 "/>
<polygon style="fill:#A8503C;" points="417.306,28.35 372.04,65.493 375.473,120.174 427.243,138.109 475.141,104.429 
	468.17,49.706 "/>
<g>
	<polygon style="fill:#993E29;" points="94.695,28.35 139.961,65.493 136.529,120.174 84.759,138.109 36.861,104.429 43.832,49.706 
			"/>
	<polygon style="fill:#993E29;" points="372.04,65.493 427.243,138.109 331.408,205.485 281.482,139.811 	"/>
</g>
<g>
	<polygon style="fill:#A8503C;" points="139.961,65.493 84.759,138.109 180.594,205.485 230.519,139.811 	"/>
	<polygon style="fill:#A8503C;" points="372.04,318.644 427.243,246.028 331.408,178.651 281.482,244.326 	"/>
	<path style="fill:#A8503C;" d="M472.209,374.668l35.813-47.11c6.692-8.803,4.736-21.397-4.306-27.757l-28.574-20.094
		l-57.834,76.079l27.005,22.158C452.859,384.955,465.517,383.471,472.209,374.668z"/>
</g>
<g>
	<polygon style="fill:#993E29;" points="139.961,318.644 84.759,246.028 180.594,178.651 230.519,244.326 	"/>
	<path style="fill:#993E29;" d="M39.793,374.668l-35.813-47.11c-6.692-8.803-4.736-21.397,4.306-27.757l28.574-20.094l57.834,76.079
		l-27.005,22.158C59.142,384.955,46.485,383.471,39.793,374.668z"/>
</g>
<polygon style="fill:#F3F5E6;" points="190.993,510.235 63.154,510.235 122.923,194.746 256.001,172.284 389.078,194.746 
	448.848,510.235 321.008,510.235 256.001,465.311 "/>
<polygon style="fill:#D7D9CC;" points="276.604,175.762 256.001,172.284 122.924,194.746 63.154,510.235 104.361,510.235 
	164.131,194.746 "/>
<path style="fill:#A8503C;" d="M321.008,447.954v62.281H190.993v-62.281c0-35.899,29.109-65.008,65.008-65.008
	C291.899,382.947,321.008,412.056,321.008,447.954z"/>
<path style="fill:#FA7578;" d="M326.797,99.987c-19.256-17.847-44.546-27.761-70.796-27.761c-13.13,0-26.015,2.481-38.022,7.188
	c-12.007,4.707-23.146,11.649-32.774,20.573l-53.766,49.835l124.562,22.463l124.562-22.462L326.797,99.987z"/>
<path style="fill:#F9545B;" d="M172.646,149.822l53.766-49.835c9.628-8.923,20.767-15.866,32.774-20.573
	c5.633-2.209,11.465-3.906,17.418-5.108c-6.738-1.361-13.634-2.08-20.604-2.08c-13.13,0-26.015,2.481-38.022,7.188
	c-12.007,4.707-23.146,11.649-32.774,20.573l-53.766,49.835l124.562,22.462l20.604-3.715L172.646,149.822z"/>
<g>
	<path style="fill:#3B484A;" d="M177.263,284.078c-4.267,0-7.726-3.459-7.726-7.726v-14.251c0-4.267,3.459-7.726,7.726-7.726
		s7.726,3.459,7.726,7.726v14.251C184.989,280.619,181.53,284.078,177.263,284.078z"/>
	<path style="fill:#3B484A;" d="M334.739,284.078c-4.267,0-7.726-3.459-7.726-7.726v-14.251c0-4.267,3.459-7.726,7.726-7.726
		c4.267,0,7.726,3.459,7.726,7.726v14.251C342.465,280.619,339.006,284.078,334.739,284.078z"/>
	<path style="fill:#3B484A;" d="M256.001,291.684c-9.804,0-19.008-4.097-25.251-11.239c-2.808-3.213-2.481-8.094,0.732-10.902
		c3.213-2.807,8.094-2.481,10.902,0.732c3.309,3.786,8.271,5.957,13.616,5.957c5.345,0,10.307-2.172,13.617-5.957
		c2.808-3.213,7.689-3.541,10.902-0.731c3.213,2.808,3.541,7.689,0.731,10.902C275.008,287.588,265.804,291.684,256.001,291.684z"/>
</g>
<polygon style="fill:#A8503C;" points="389.078,194.746 122.923,194.746 131.438,149.822 380.563,149.822 "/>
<polygon style="fill:#993E29;" points="131.438,149.822 122.924,194.746 164.131,194.746 172.646,149.822 "/>
<path style="fill:#A8503C;" d="M39.793,9.468L3.98,56.578c-6.692,8.803-4.736,21.397,4.306,27.757l28.574,20.094L94.695,28.35
	L67.69,6.192C59.142-0.818,46.485,0.665,39.793,9.468z"/>
<path style="fill:#993E29;" d="M472.209,9.468l35.813,47.11c6.692,8.803,4.736,21.397-4.306,27.757l-28.574,20.094L417.308,28.35
	l27.004-22.158C452.859-0.818,465.517,0.665,472.209,9.468z"/>
<g>
</g>
<g>
</g>
<g>
</g>
<g>
</g>
<g>
</g>
<g>
</g>
<g>
</g>
<g>
</g>
<g>
</g>
<g>
</g>
<g>
</g>
<g>
</g>
<g>
</g>
<g>
</g>
<g>
</g>
</svg>
