<?xml version="1.0" encoding="iso-8859-1"?>
<!-- Generator: Adobe Illustrator 19.0.0, SVG Export Plug-In . SVG Version: 6.00 Build 0)  -->
<svg version="1.1" id="Capa_1" xmlns="http://www.w3.org/2000/svg" xmlns:xlink="http://www.w3.org/1999/xlink" x="0px" y="0px"
	 viewBox="0 0 512 512" style="enable-background:new 0 0 512 512;" xml:space="preserve">
<polygon style="fill:#D7D9CC;" points="163.588,342.648 86.605,320.084 0,342.648 0,448.081 114.211,448.081 174.206,395.365 "/>
<polygon style="fill:#BDBFB4;" points="341.444,320.084 163.588,342.648 114.211,448.081 462.623,448.081 512,342.648 "/>
<polygon style="fill:#A4A69C;" points="161.174,418.218 182.579,372.512 465.037,372.512 443.632,418.218 "/>
<path style="fill:#333E40;" d="M163.588,342.648H512V227.506c0-90.347-73.241-163.588-163.588-163.588H0L163.588,342.648z"/>
<path style="fill:#3B484A;" d="M0,63.919L0,63.919v278.73h163.588V227.506C163.588,137.159,90.347,63.919,0,63.919z"/>
<path style="fill:#80E2FF;" d="M39.819,110.311v85.839l35.063,19.709l44.862-19.709C109.192,155.913,78.86,123.609,39.819,110.311z"
	/>
<path style="fill:#55C2E3;" d="M39.819,110.311v9.212c28.933,16.254,50.713,43.797,59.322,76.627h20.604
	C109.192,155.913,78.86,123.609,39.819,110.311z"/>
<polygon style="fill:#80E2FF;" points="81.794,213.072 39.819,229.995 39.819,302.833 123.766,302.833 123.766,229.995 "/>
<rect x="103.162" y="229.998" style="fill:#55C2E3;" width="20.604" height="72.834"/>
<path style="fill:#80E2FF;" d="M348.412,103.74H161.315c20.337,26.44,34.334,58.016,39.679,92.409l136.797,16.923l130.366-16.923
	C454.24,143.042,405.831,103.74,348.412,103.74z"/>
<path style="fill:#55C2E3;" d="M348.412,103.74h-20.604c57.418,0,105.827,39.3,119.744,92.409l-120.312,15.618l10.55,1.305
	l130.366-16.923C454.24,143.042,405.831,103.74,348.412,103.74z"/>
<polygon style="fill:#80E2FF;" points="337.79,213.072 203.403,229.995 203.403,302.833 472.178,302.833 472.178,229.995 "/>
<polygon style="fill:#55C2E3;" points="337.79,213.072 327.488,214.369 451.575,229.995 451.575,302.833 472.178,302.833 
	472.178,229.995 "/>
<path style="fill:#FFFFFF;" d="M472.178,227.506v2.489H203.403v-2.489c0-10.661-0.826-21.134-2.409-31.357h267.162
	C470.785,206.163,472.178,216.676,472.178,227.506z"/>
<path style="fill:#D7D9CC;" d="M468.157,196.15h-20.604c2.628,10.014,4.022,20.526,4.022,31.357v2.489h20.604v-2.489
	C472.178,216.676,470.785,206.163,468.157,196.15z"/>
<path style="fill:#FFFFFF;" d="M123.766,227.506v2.489H39.819V196.15h79.926C122.372,206.163,123.766,216.676,123.766,227.506z"/>
<path style="fill:#D7D9CC;" d="M119.744,196.15H99.141c2.628,10.014,4.022,20.526,4.022,31.357v2.489h20.604v-2.489
	C123.766,216.676,122.372,206.163,119.744,196.15z"/>
<g>
	<path style="fill:#3B484A;" d="M250.707,160.949c-4.268,0-7.726-3.459-7.726-7.726v-12.502c0-4.267,3.458-7.726,7.726-7.726
		c4.268,0,7.726,3.459,7.726,7.726v12.502C258.433,157.49,254.975,160.949,250.707,160.949z"/>
	<path style="fill:#3B484A;" d="M388.874,160.949c-4.268,0-7.726-3.459-7.726-7.726v-12.502c0-4.267,3.458-7.726,7.726-7.726
		c4.268,0,7.726,3.459,7.726,7.726v12.502C396.6,157.49,393.142,160.949,388.874,160.949z"/>
	<path style="fill:#3B484A;" d="M319.791,167.623c-8.875,0-17.21-3.713-22.868-10.185c-2.809-3.213-2.481-8.094,0.731-10.902
		c3.213-2.807,8.093-2.481,10.902,0.732c2.725,3.115,6.819,4.903,11.234,4.903s8.51-1.787,11.233-4.903
		c2.808-3.213,7.688-3.541,10.902-0.731c3.212,2.808,3.541,7.689,0.731,10.902C337,163.911,328.665,167.623,319.791,167.623z"/>
</g>
<g>
</g>
<g>
</g>
<g>
</g>
<g>
</g>
<g>
</g>
<g>
</g>
<g>
</g>
<g>
</g>
<g>
</g>
<g>
</g>
<g>
</g>
<g>
</g>
<g>
</g>
<g>
</g>
<g>
</g>
</svg>
