<?xml version="1.0" encoding="iso-8859-1"?>
<!-- Generator: Adobe Illustrator 19.0.0, SVG Export Plug-In . SVG Version: 6.00 Build 0)  -->
<svg version="1.1" id="Capa_1" xmlns="http://www.w3.org/2000/svg" xmlns:xlink="http://www.w3.org/1999/xlink" x="0px" y="0px"
	 viewBox="0 0 512 512" style="enable-background:new 0 0 512 512;" xml:space="preserve">
<path style="fill:#FB8D4B;" d="M265.855,69.873c-22.513,18.635-47.251,41.187-74.789,67.918l-9.446,43.831l-22.365-12.392
	c-28.127,28.267-52.253,53.726-72.578,76.922l-9.747,47.141l-20.76-10.384c-78.565,101.178-70.694,155.874-1.372,225.196
	c26.561,26.561,131.097-87.204,248.6-204.707S534.665,81.357,508.105,54.797C442.568-10.74,390.09-21.356,299.055,44.087
	l-10.027,39.434L265.855,69.873z"/>
<path style="fill:#E86D24;" d="M81.926,481.663C32.533,432.27,9.812,389.225,20.365,336.372
	c-37.477,69.207-21.607,115.692,34.432,171.731c12.7,12.701,43.239-6.697,84.489-43.234
	C112.137,484.379,92.121,491.858,81.926,481.663z"/>
<g>
	<path style="fill:#3B484A;" d="M207.439,335.332c-1.977,0-3.955-0.754-5.463-2.263l-10.875-10.874
		c-3.017-3.017-3.017-7.91,0-10.927c3.017-3.017,7.91-3.017,10.926,0l10.875,10.874c3.017,3.017,3.017,7.91,0,10.927
		C211.393,334.577,209.416,335.332,207.439,335.332z"/>
	<path style="fill:#3B484A;" d="M327.605,215.164c-1.977,0-3.955-0.754-5.463-2.263l-10.874-10.874
		c-3.017-3.017-3.017-7.91,0-10.927c3.017-3.017,7.91-3.016,10.926,0l10.874,10.874c3.017,3.017,3.017,7.91,0,10.927
		C331.56,214.41,329.582,215.164,327.605,215.164z"/>
	<path style="fill:#3B484A;" d="M253.688,289.38c-0.755,0-1.512-0.025-2.27-0.076c-4.258-0.286-7.477-3.969-7.191-8.227
		c0.285-4.258,3.961-7.478,8.226-7.192c5.588,0.378,11.206-1.819,15.409-6.022s6.398-9.82,6.023-15.409
		c-0.286-4.258,2.933-7.941,7.191-8.227c4.267-0.283,7.941,2.933,8.227,7.191c0.675,10.038-3.158,20.015-10.514,27.372
		C271.988,285.591,262.946,289.38,253.688,289.38z"/>
</g>
<g>
	<path style="fill:#E86D24;" d="M299.055,44.087l22.473,91.571c1.66,6.762-0.497,13.572-5.087,18.162
		c-2.396,2.396-5.452,4.179-8.98,5.056c-10.29,2.521-20.69-3.768-23.218-14.067l-18.387-74.936
		C277.488,60.241,288.532,51.649,299.055,44.087z"/>
	<path style="fill:#E86D24;" d="M191.067,137.791l25.289,103.04c1.66,6.762-0.497,13.571-5.087,18.162
		c-2.396,2.396-5.452,4.179-8.98,5.056c-10.29,2.521-20.69-3.768-23.218-14.067l-19.813-80.752c1.644-1.66,3.304-3.319,4.979-4.994
		C173.464,155.006,182.405,146.189,191.067,137.791z"/>
	<path style="fill:#E86D24;" d="M86.678,246.15l24.506,99.852c1.66,6.762-0.497,13.572-5.087,18.162
		c-2.396,2.396-5.452,4.179-8.98,5.056c-10.29,2.521-20.69-3.768-23.218-14.067L56.17,282.908
		C65.19,271.299,75.348,259.078,86.678,246.15z"/>
</g>
<g>
</g>
<g>
</g>
<g>
</g>
<g>
</g>
<g>
</g>
<g>
</g>
<g>
</g>
<g>
</g>
<g>
</g>
<g>
</g>
<g>
</g>
<g>
</g>
<g>
</g>
<g>
</g>
<g>
</g>
</svg>
