<?xml version="1.0" encoding="iso-8859-1"?>
<!-- Generator: Adobe Illustrator 19.0.0, SVG Export Plug-In . SVG Version: 6.00 Build 0)  -->
<svg version="1.1" id="Capa_1" xmlns="http://www.w3.org/2000/svg" xmlns:xlink="http://www.w3.org/1999/xlink" x="0px" y="0px"
	 viewBox="0 0 511.999 511.999" style="enable-background:new 0 0 511.999 511.999;" xml:space="preserve">
<polygon style="fill:#993E29;" points="213.131,118.104 166.145,118.104 124.737,183.519 124.737,263.951 145.441,364.081 
	185.215,393.894 234.662,393.894 262.576,118.104 "/>
<path style="fill:#A8503C;" d="M439.825,118.104c-47.857,0-43.426,20.383-88.624,20.383s-40.767-20.383-88.624-20.383
	s-119.641,142.853-27.916,275.79h218.034c9.616,0,18.58-4.954,23.628-13.137C554.737,253.665,486.098,118.104,439.825,118.104z"/>
<path style="fill:#FDCA74;" d="M466.805,200.403c-5.628-16.74-12.636-28.56-18.554-36.128c-5.687-7.276-14.998-10.722-24.033-8.81
	c-5.475,1.159-9.376,3.048-14.434,5.499c-11.831,5.731-28.033,13.581-58.583,13.581s-46.753-7.849-58.583-13.581
	c-5.317-2.575-9.355-4.532-15.286-5.671c-8.733-1.677-17.683,1.718-23.21,8.684c-6.32,7.964-13.888,20.781-19.681,39.282
	c-7.639,24.4-19.876,85.882,20.01,154.58h193.591C489.172,287.973,474.968,224.682,466.805,200.403z"/>
<path style="fill:#993E29;" d="M166.145,118.104H119.16c-2.954,0-5.999,0.429-9.09,1.26l-34.778,4.819l-25.053,28.534l-28.35,92.72
	l30.987,119.304l38.369,29.153h46.986l7.211-29.812l-20.704-100.13V183.52L166.145,118.104"/>
<g>
	<path style="fill:#A8503C;" d="M119.16,118.104H72.174c-46.049,0-114.251,134.555-37.621,260.819
		c5.659,9.324,15.824,14.971,26.73,14.971h29.961C-0.481,260.957,71.303,118.104,119.16,118.104z"/>
	<path style="fill:#A8503C;" d="M138.229,393.894c-91.725-132.937-19.941-275.79,27.916-275.79h46.986
		c-47.857,0-119.641,142.853-27.916,275.79H138.229z"/>
</g>
<g>
	<path style="fill:#3B484A;" d="M293.117,262.055c-4.267,0-7.726-3.459-7.726-7.726v-10.512c0-4.267,3.459-7.726,7.726-7.726
		c4.267,0,7.726,3.459,7.726,7.726v10.512C300.843,258.596,297.384,262.055,293.117,262.055z"/>
	<path style="fill:#3B484A;" d="M409.285,262.055c-4.267,0-7.726-3.459-7.726-7.726v-10.512c0-4.267,3.459-7.726,7.726-7.726
		c4.267,0,7.726,3.459,7.726,7.726v10.512C417.012,258.596,413.553,262.055,409.285,262.055z"/>
	<path style="fill:#3B484A;" d="M351.201,267.667c-7.816,0-15.162-3.275-20.153-8.984c-2.808-3.212-2.481-8.093,0.731-10.902
		c3.213-2.808,8.093-2.481,10.902,0.732c2.056,2.352,5.161,3.701,8.52,3.701s6.462-1.35,8.519-3.701
		c2.808-3.214,7.689-3.541,10.902-0.732s3.541,7.689,0.732,10.902C366.363,264.392,359.018,267.667,351.201,267.667z"/>
</g>
<g>
</g>
<g>
</g>
<g>
</g>
<g>
</g>
<g>
</g>
<g>
</g>
<g>
</g>
<g>
</g>
<g>
</g>
<g>
</g>
<g>
</g>
<g>
</g>
<g>
</g>
<g>
</g>
<g>
</g>
</svg>
