<?xml version="1.0" encoding="iso-8859-1"?>
<!-- Generator: Adobe Illustrator 19.0.0, SVG Export Plug-In . SVG Version: 6.00 Build 0)  -->
<svg version="1.1" id="Capa_1" xmlns="http://www.w3.org/2000/svg" xmlns:xlink="http://www.w3.org/1999/xlink" x="0px" y="0px"
	 viewBox="0 0 511.999 511.999" style="enable-background:new 0 0 511.999 511.999;" xml:space="preserve">
<g>
	<path style="fill:#BDBFB4;" d="M173.84,256.988l24.057,65.946c4.133,11.329,14.906,18.866,26.964,18.866h62.279
		c12.059,0,22.832-7.538,26.964-18.866l24.057-65.946H173.84L173.84,256.988z"/>
	<path style="fill:#BDBFB4;" d="M9.519,256.988l24.057,65.946C37.709,334.263,48.481,341.8,60.54,341.8h62.279
		c12.059,0,22.832-7.538,26.964-18.866l24.057-65.946H9.519L9.519,256.988z"/>
	<path style="fill:#BDBFB4;" d="M502.481,256.988l-24.057,65.946c-4.133,11.329-14.906,18.866-26.964,18.866h-62.279
		c-12.059,0-22.832-7.538-26.964-18.866l-24.057-65.946H502.481L502.481,256.988z"/>
</g>
<path style="fill:#FDCA74;" d="M105.402,170.199H77.957c-33.602,0-60.842,27.24-60.842,60.842v25.947h149.13v-25.947
	C166.244,197.439,139.004,170.199,105.402,170.199z"/>
<path style="fill:#E6B25B;" d="M98.561,170.199H77.957c-33.602,0-60.842,27.24-60.842,60.842v25.947h20.604v-25.947
	C37.718,197.439,64.958,170.199,98.561,170.199z"/>
<path style="fill:#FDCA74;" d="M434.043,170.199h-27.445c-33.602,0-60.842,27.24-60.842,60.842v25.947h149.13v-25.947
	C494.886,197.439,467.646,170.199,434.043,170.199z"/>
<path style="fill:#E6B25B;" d="M427.202,170.199h-20.604c-33.602,0-60.842,27.24-60.842,60.842v25.947h20.604v-25.947
	C366.359,197.439,393.599,170.199,427.202,170.199z"/>
<path style="fill:#FDCA74;" d="M269.723,170.199h-27.445c-33.602,0-60.842,27.24-60.842,60.842v25.947h149.13v-25.947
	C330.566,197.439,303.325,170.199,269.723,170.199z"/>
<path style="fill:#E6B25B;" d="M262.881,170.199h-20.604c-33.602,0-60.842,27.24-60.842,60.842v25.947h20.604v-25.947
	C202.038,197.439,229.278,170.199,262.881,170.199z"/>
<g>
	<polygon style="fill:#A4A69C;" points="502.481,256.988 338.16,256.988 355.877,305.554 484.764,305.554 	"/>
	<polygon style="fill:#A4A69C;" points="191.557,305.554 320.444,305.554 338.16,256.988 173.84,256.988 	"/>
	<polygon style="fill:#A4A69C;" points="27.236,305.554 156.123,305.554 173.84,256.988 9.519,256.988 	"/>
</g>
<path style="fill:#BDBFB4;" d="M500.214,234.177H11.786C5.277,234.177,0,239.454,0,245.963v22.049
	c0,6.51,5.277,11.786,11.786,11.786h488.426c6.51,0,11.786-5.277,11.786-11.786v-22.049
	C512,239.454,506.723,234.177,500.214,234.177z"/>
<g>
	<path style="fill:#3B484A;" d="M54.732,217.033c-4.267,0-7.726-3.459-7.726-7.726v-6.687c0-4.267,3.459-7.726,7.726-7.726
		s7.726,3.459,7.726,7.726v6.687C62.459,213.574,59,217.033,54.732,217.033z"/>
	<path style="fill:#3B484A;" d="M128.627,217.033c-4.267,0-7.726-3.459-7.726-7.726v-6.687c0-4.267,3.459-7.726,7.726-7.726
		s7.726,3.459,7.726,7.726v6.687C136.354,213.574,132.894,217.033,128.627,217.033z"/>
	<path style="fill:#3B484A;" d="M91.68,220.601c-5.783,0-11.228-2.433-14.937-6.676c-2.808-3.213-2.481-8.094,0.732-10.902
		s8.093-2.48,10.902,0.732c0.774,0.885,1.977,1.393,3.302,1.393c1.325,0,2.528-0.508,3.303-1.394
		c2.809-3.212,7.69-3.54,10.902-0.731c3.212,2.808,3.54,7.689,0.731,10.902C102.907,218.169,97.462,220.601,91.68,220.601z"/>
	<path style="fill:#3B484A;" d="M457.269,217.033c-4.267,0-7.726-3.459-7.726-7.726v-6.687c0-4.267,3.459-7.726,7.726-7.726
		c4.267,0,7.726,3.459,7.726,7.726v6.687C464.995,213.574,461.536,217.033,457.269,217.033z"/>
	<path style="fill:#3B484A;" d="M383.373,217.033c-4.267,0-7.726-3.459-7.726-7.726v-6.687c0-4.267,3.459-7.726,7.726-7.726
		c4.267,0,7.726,3.459,7.726,7.726v6.687C391.099,213.574,387.64,217.033,383.373,217.033z"/>
	<path style="fill:#3B484A;" d="M420.32,220.601c-5.783,0-11.228-2.433-14.937-6.676c-2.808-3.213-2.481-8.094,0.732-10.902
		c3.213-2.808,8.094-2.48,10.902,0.732c0.774,0.885,1.977,1.393,3.302,1.393s2.528-0.508,3.302-1.393
		c2.808-3.213,7.689-3.541,10.902-0.732c3.213,2.808,3.541,7.689,0.732,10.902C431.548,218.168,426.105,220.601,420.32,220.601z"/>
	<path style="fill:#3B484A;" d="M219.053,217.033c-4.267,0-7.726-3.459-7.726-7.726v-6.687c0-4.267,3.459-7.726,7.726-7.726
		c4.267,0,7.726,3.459,7.726,7.726v6.687C226.779,213.574,223.32,217.033,219.053,217.033z"/>
	<path style="fill:#3B484A;" d="M292.947,217.033c-4.267,0-7.726-3.459-7.726-7.726v-6.687c0-4.267,3.459-7.726,7.726-7.726
		c4.267,0,7.726,3.459,7.726,7.726v6.687C300.674,213.574,297.214,217.033,292.947,217.033z"/>
	<path style="fill:#3B484A;" d="M256,220.601c-5.783,0-11.228-2.433-14.937-6.676c-2.808-3.213-2.481-8.094,0.732-10.902
		c3.213-2.808,8.094-2.48,10.902,0.732c0.774,0.885,1.977,1.393,3.302,1.393c1.325,0,2.528-0.508,3.303-1.394
		c2.809-3.212,7.689-3.54,10.902-0.731c3.212,2.808,3.54,7.689,0.731,10.902C267.227,218.169,261.782,220.601,256,220.601z"/>
</g>
<g>
</g>
<g>
</g>
<g>
</g>
<g>
</g>
<g>
</g>
<g>
</g>
<g>
</g>
<g>
</g>
<g>
</g>
<g>
</g>
<g>
</g>
<g>
</g>
<g>
</g>
<g>
</g>
<g>
</g>
</svg>
