<?xml version="1.0" encoding="iso-8859-1"?>
<!-- Generator: Adobe Illustrator 19.0.0, SVG Export Plug-In . SVG Version: 6.00 Build 0)  -->
<svg version="1.1" id="Capa_1" xmlns="http://www.w3.org/2000/svg" xmlns:xlink="http://www.w3.org/1999/xlink" x="0px" y="0px"
	 viewBox="0 0 512 512" style="enable-background:new 0 0 512 512;" xml:space="preserve">
<path style="fill:#A8503C;" d="M440.217,1.304L289.841,97.943l15.005,23.348l150.376-96.639c3.813-2.451,4.917-7.528,2.467-11.34
	l-6.131-9.541C449.106-0.042,444.029-1.147,440.217,1.304z"/>
<g>
	<path style="fill:#FDCA74;" d="M206.336,145.127c-4.085-6.356-12.549-8.197-18.904-4.112c-6.356,4.085-8.197,12.549-4.112,18.904
		l20.9,32.521c4.085,6.356,12.549,8.197,18.904,4.112c6.355-4.085,8.197-12.549,4.112-18.904l1.058-23.656L206.336,145.127z"/>
	<path style="fill:#FDCA74;" d="M247.44,107.874c-4.085-6.356-12.549-8.197-18.904-4.112c-6.356,4.085-8.197,12.549-4.112,18.904
		l3.87,31.326l26.887,16.534c4.085,6.356,12.549,8.197,18.904,4.112c6.356-4.085,8.197-12.549,4.112-18.904l-3.87-31.326
		L247.44,107.874z"/>
</g>
<rect x="294.22" y="85.101" transform="matrix(-0.8413 0.5406 -0.5406 -0.8413 631.5567 12.5343)" style="fill:#993E29;" width="39.436" height="27.754"/>
<path style="fill:#FDCA74;" d="M274.569,74.179c-6.356,4.085-8.197,12.549-4.112,18.904l3.87,31.326l26.887,16.534
	c4.085,6.356,12.549,8.197,18.904,4.112c6.356-4.085,8.197-12.549,4.112-18.904l-30.757-47.86
	C289.388,71.935,280.924,70.094,274.569,74.179z"/>
<path style="fill:#80E2FF;" d="M81.13,261.604c-48.387,76.708-24.106,162.938-2.771,211.558C88.714,496.757,112.026,512,137.793,512
	h111.312c25.768,0,49.08-15.243,59.434-38.838c21.335-48.619,45.615-134.85-2.771-211.558l-112.32-19.154L81.13,261.604z"/>
<g>
	<path style="fill:#55C2E3;" d="M129.868,473.162c-21.335-48.619-45.615-134.85,2.771-211.558l86.565-14.762l-25.755-4.392
		L81.13,261.604c-48.387,76.708-24.106,162.939-2.771,211.558C88.714,496.757,112.026,512,137.793,512h51.509
		C163.535,512,140.223,496.757,129.868,473.162z"/>
	<path style="fill:#55C2E3;" d="M305.769,223.296H81.13c-10.579,0-19.154,8.575-19.154,19.154l0,0
		c0,10.579,8.575,19.154,19.154,19.154h224.638c10.579,0,19.154-8.575,19.154-19.154l0,0
		C324.923,231.872,316.348,223.296,305.769,223.296z"/>
</g>
<path style="fill:#45B6D9;" d="M113.485,242.45L113.485,242.45c0-10.579,8.575-19.154,19.154-19.154H81.13
	c-10.579,0-19.154,8.575-19.154,19.154l0,0c0,10.579,8.575,19.154,19.154,19.154h51.509
	C122.061,261.604,113.485,253.029,113.485,242.45z"/>
<path style="fill:#FB8D4B;" d="M295.46,336.88c-1.873-12.274-12.505-21.297-24.921-21.297H116.361
	c-12.415,0-23.048,9.023-24.921,21.297c-1.869,12.25-2.332,25.065-1.369,38.401c2.398,33.211,13.165,63.568,21.774,83.187
	c4.521,10.305,14.707,16.964,25.949,16.964h111.312c11.241,0,21.427-6.659,25.95-16.964c8.608-19.619,19.374-49.976,21.773-83.187
	C297.792,361.946,297.328,349.131,295.46,336.88z"/>
<path style="fill:#E86D24;" d="M129.868,473.162c-16.336-37.226-34.398-96.5-20.247-156.667c-9.35,2.582-16.659,10.41-18.181,20.385
	c-1.869,12.25-2.332,25.065-1.369,38.401c2.398,33.211,13.165,63.568,21.774,83.187c3.51,7.998,10.438,13.784,18.617,15.98
	C130.263,474.021,130.059,473.596,129.868,473.162z"/>
<g>
	<path style="fill:#3B484A;" d="M132.085,397.988c-4.267,0-7.726-3.459-7.726-7.726v-11.105c0-4.267,3.459-7.726,7.726-7.726
		c4.267,0,7.726,3.459,7.726,7.726v11.105C139.812,394.528,136.352,397.988,132.085,397.988z"/>
	<path style="fill:#3B484A;" d="M254.814,397.988c-4.267,0-7.726-3.459-7.726-7.726v-11.105c0-4.267,3.459-7.726,7.726-7.726
		c4.267,0,7.726,3.459,7.726,7.726v11.105C262.54,394.528,259.081,397.988,254.814,397.988z"/>
	<path style="fill:#3B484A;" d="M193.45,403.916c-8.133,0-15.773-3.405-20.963-9.342c-2.808-3.213-2.481-8.094,0.732-10.902
		c3.213-2.808,8.093-2.481,10.902,0.732c2.255,2.58,5.655,4.059,9.328,4.059c3.673,0,7.073-1.479,9.328-4.059
		c2.809-3.214,7.689-3.541,10.902-0.732s3.541,7.689,0.732,10.902C209.222,400.511,201.582,403.916,193.45,403.916z"/>
</g>
<g>
	<path style="fill:#E6B25B;" d="M251.552,88.97c-6.356,4.085-8.197,12.549-4.112,18.904l30.757,47.859
		c4.085,6.356,12.549,8.197,18.904,4.112c6.356-4.085,8.197-12.549,4.112-18.904l-30.757-47.859
		C266.371,86.727,257.907,84.886,251.552,88.97z"/>
	<path style="fill:#E6B25B;" d="M205.519,118.554c-6.356,4.085-8.197,12.549-4.112,18.904l30.757,47.86
		c4.085,6.356,12.549,8.197,18.904,4.112c6.356-4.085,8.197-12.549,4.112-18.904l-30.757-47.859
		C220.339,116.31,211.875,114.469,205.519,118.554z"/>
</g>
<g>
</g>
<g>
</g>
<g>
</g>
<g>
</g>
<g>
</g>
<g>
</g>
<g>
</g>
<g>
</g>
<g>
</g>
<g>
</g>
<g>
</g>
<g>
</g>
<g>
</g>
<g>
</g>
<g>
</g>
</svg>
