<?xml version="1.0" encoding="iso-8859-1"?>
<!-- Generator: Adobe Illustrator 19.0.0, SVG Export Plug-In . SVG Version: 6.00 Build 0)  -->
<svg version="1.1" id="Capa_1" xmlns="http://www.w3.org/2000/svg" xmlns:xlink="http://www.w3.org/1999/xlink" x="0px" y="0px"
	 viewBox="0 0 512 512" style="enable-background:new 0 0 512 512;" xml:space="preserve">
<path style="fill:#D7D9CC;" d="M239.639,282.921c-2.311,2.311-5.125,4.189-8.363,5.451c-30.341,11.817-56.091,39.534-56.349,39.808
	c-9.101,9.862-24.457,10.526-34.338,1.462c-9.88-9.066-10.573-24.402-1.527-34.3c1.345-1.472,33.45-36.27,74.564-52.282
	c12.513-4.874,26.606,1.32,31.48,13.831C248.72,266.165,246.252,276.308,239.639,282.921z"/>
<circle style="fill:#BDBFB4;" cx="335.987" cy="168.095" r="168.095"/>
<circle style="fill:#D7D9CC;" cx="335.987" cy="168.095" r="135.963"/>
<circle style="fill:#BDBFB4;" cx="335.987" cy="168.095" r="26.627"/>
<path style="fill:#F9545B;" d="M119.493,279.055c0,0-81.285,102.406-109.587,184.793c-4.514,13.142-1.215,27.707,8.611,37.533l0,0
	c18.686,18.686,50.373,11.704,59.619-13.052c4.957-13.274,25.098-54.326,28.864-61.726c4.008-7.877,12.051-12.874,20.889-12.962l0,0
	c15.015-0.149,28.07-10.192,32.242-24.617c6.582-22.766,16.213-37.448,16.213-37.448l-31.707-65.328L119.493,279.055z"/>
<path style="fill:#DE4B51;" d="M176.344,351.575l-31.707-65.328l-25.143-7.193c0,0-8.228,10.369-20.352,27.146
	c11.807,20.237,26.191,38.9,43.018,55.727c6.562,6.561,13.478,12.804,20.656,18.669
	C169.048,362.702,176.344,351.575,176.344,351.575z"/>
<path style="fill:#FA7578;" d="M119.891,241.924L119.891,241.924c-7.832,3.624-11.391,12.806-8.037,20.758
	c11.858,28.128,29.245,54.478,52.16,77.392c9.181,9.182,18.914,17.475,29.092,24.882c8.187,5.958,19.794,2.818,23.958-6.411
	c3.116-6.905,0.97-15.052-5.154-19.51c-8.836-6.43-17.285-13.63-25.256-21.602c-19.923-19.923-35.033-42.836-45.331-67.296
	C137.823,241.829,128.075,238.138,119.891,241.924z"/>
<g>
</g>
<g>
</g>
<g>
</g>
<g>
</g>
<g>
</g>
<g>
</g>
<g>
</g>
<g>
</g>
<g>
</g>
<g>
</g>
<g>
</g>
<g>
</g>
<g>
</g>
<g>
</g>
<g>
</g>
</svg>
