<?xml version="1.0" encoding="iso-8859-1"?>
<!-- Generator: Adobe Illustrator 19.0.0, SVG Export Plug-In . SVG Version: 6.00 Build 0)  -->
<svg version="1.1" id="Capa_1" xmlns="http://www.w3.org/2000/svg" xmlns:xlink="http://www.w3.org/1999/xlink" x="0px" y="0px"
	 viewBox="0 0 512 512" style="enable-background:new 0 0 512 512;" xml:space="preserve">
<path style="fill:#F9545B;" d="M105.416,285.681H56.049c-25.426,0-47.704-17.174-54.175-41.763
	c-4.455-16.931-0.881-34.593,9.808-48.46c10.688-13.865,26.86-21.817,44.367-21.817h49.367c8.757,0,15.854,7.099,15.854,15.854
	c0,8.756-7.098,15.854-15.854,15.854H56.049c-7.598,0-14.615,3.451-19.253,9.467c-4.639,6.017-6.19,13.683-4.257,21.03
	c2.808,10.671,12.475,18.123,23.51,18.123h49.367c8.757,0,15.854,7.098,15.854,15.854
	C121.271,278.584,114.173,285.681,105.416,285.681z"/>
<path style="fill:#FA7578;" d="M264.325,132.42H83.072c-16.83,0-29.909,14.652-28.007,31.373l11.089,97.476
	c3.692,32.456,31.156,56.972,63.821,56.972l43.723,30.668l43.723-30.668c32.666,0,60.129-24.516,63.821-56.972l11.089-97.476
	C294.234,147.073,281.154,132.42,264.325,132.42z"/>
<path style="fill:#E6B25B;" d="M477.49,226.998h-0.201l-61.269-22.755l-61.269,22.755h-0.201c-12.608,0-22.83,10.221-22.83,22.83
	l0,0c0,12.608,10.221,22.83,22.83,22.83l61.471,22.755l61.471-22.755c12.608,0,22.83-10.221,22.83-22.83l0,0
	C500.32,237.219,490.098,226.998,477.49,226.998z"/>
<g>
	<path style="fill:#3B484A;" d="M117.37,235.433c-4.267,0-7.726-3.459-7.726-7.726v-10.195c0-4.267,3.459-7.726,7.726-7.726
		s7.726,3.459,7.726,7.726v10.195C125.097,231.974,121.637,235.433,117.37,235.433z"/>
	<path style="fill:#3B484A;" d="M230.026,235.433c-4.267,0-7.726-3.459-7.726-7.726v-10.195c0-4.267,3.459-7.726,7.726-7.726
		c4.267,0,7.726,3.459,7.726,7.726v10.195C237.752,231.974,234.293,235.433,230.026,235.433z"/>
	<path style="fill:#3B484A;" d="M173.699,240.876c-7.648,0-14.836-3.205-19.72-8.793c-2.808-3.213-2.481-8.094,0.732-10.902
		c3.213-2.808,8.093-2.481,10.902,0.732c1.949,2.23,4.896,3.51,8.085,3.51c3.188,0,6.136-1.279,8.085-3.51
		c2.809-3.214,7.689-3.541,10.902-0.732s3.541,7.689,0.732,10.902C188.533,237.671,181.346,240.876,173.699,240.876z"/>
</g>
<g>
	<path style="fill:#FDCA74;" d="M477.49,272.583H354.549c-12.608,0-22.83,10.221-22.83,22.83l0,0c0,12.608,10.221,22.83,22.83,22.83
		H477.49c12.608,0,22.83-10.221,22.83-22.83l0,0C500.32,282.804,490.098,272.583,477.49,272.583z"/>
	<path style="fill:#FDCA74;" d="M477.49,181.414H354.549c-12.608,0-22.83,10.221-22.83,22.83l0,0c0,12.608,10.221,22.83,22.83,22.83
		H477.49c12.608,0,22.83-10.221,22.83-22.83l0,0C500.32,191.634,490.098,181.414,477.49,181.414z"/>
</g>
<path style="fill:#E6B25B;" d="M372.926,204.244L372.926,204.244c0-12.608,10.221-22.83,22.83-22.83h-41.207
	c-12.608,0-22.83,10.221-22.83,22.83l0,0c0,12.608,10.221,22.83,22.83,22.83h41.207
	C383.148,227.072,372.926,216.852,372.926,204.244z"/>
<path style="fill:#D9A856;" d="M372.926,249.827L372.926,249.827c0-12.608,10.221-22.83,22.83-22.83h-41.207
	c-12.608,0-22.83,10.221-22.83,22.83l0,0c0,12.608,10.221,22.83,22.83,22.83h41.207
	C383.148,272.657,372.926,262.436,372.926,249.827z"/>
<path style="fill:#E6B25B;" d="M372.926,295.411L372.926,295.411c0-12.608,10.221-22.83,22.83-22.83h-41.207
	c-12.608,0-22.83,10.221-22.83,22.83l0,0c0,12.608,10.221,22.83,22.83,22.83h41.207
	C383.148,318.241,372.926,308.021,372.926,295.411z"/>
<path style="fill:#F9545B;" d="M500.32,318.241H34.301c-6.451,0-11.68,5.229-11.68,11.68l0,0c0,27.424,22.232,49.657,49.657,49.657
	h390.066c27.424,0,49.657-22.232,49.657-49.657l0,0C512,323.472,506.771,318.241,500.32,318.241z"/>
<path style="fill:#DE4B51;" d="M63.827,329.923L63.827,329.923c0-6.451,5.229-11.68,11.68-11.68H34.3
	c-6.451,0-11.68,5.229-11.68,11.68l0,0c0,27.425,22.232,49.657,49.657,49.657h41.207C86.059,379.579,63.827,357.347,63.827,329.923z
	"/>
<g>
</g>
<g>
</g>
<g>
</g>
<g>
</g>
<g>
</g>
<g>
</g>
<g>
</g>
<g>
</g>
<g>
</g>
<g>
</g>
<g>
</g>
<g>
</g>
<g>
</g>
<g>
</g>
<g>
</g>
</svg>
