<?xml version="1.0" encoding="iso-8859-1"?>
<!-- Generator: Adobe Illustrator 19.0.0, SVG Export Plug-In . SVG Version: 6.00 Build 0)  -->
<svg version="1.1" id="Capa_1" xmlns="http://www.w3.org/2000/svg" xmlns:xlink="http://www.w3.org/1999/xlink" x="0px" y="0px"
	 viewBox="0 0 512 512" style="enable-background:new 0 0 512 512;" xml:space="preserve">
<path style="fill:#F3F5E6;" d="M467.217,402.474h-71.724v36.14h71.724c5.806,0,10.512-4.707,10.512-10.512v-15.115
	C477.729,407.181,473.023,402.474,467.217,402.474z"/>
<path style="fill:#D7D9CC;" d="M467.217,402.474h-20.604c5.806,0,10.512,4.707,10.512,10.512v15.116
	c0,5.805-4.706,10.512-10.512,10.512h20.604c5.806,0,10.512-4.707,10.512-10.512v-15.116
	C477.729,407.181,473.023,402.474,467.217,402.474z"/>
<path style="fill:#4CC7B3;" d="M277.117,0L277.117,0C193.41,0,125.552,67.858,125.552,151.565v25.017l-12.59-12.589
	c-18.001-18.002-47.188-18.002-65.19,0l0,0c-18.001,18.001-18.001,47.188,0,65.19l77.78,77.78v160.784l0,0l151.565,22.126
	l151.565-22.126l0,0V151.565C428.683,67.858,360.824,0,277.117,0z"/>
<path style="fill:#2AAC92;" d="M277.117,0L277.117,0c-6.99,0-13.865,0.483-20.604,1.4c73.96,10.054,130.962,73.448,130.962,150.165
	v316.182l0,0l-130.962,19.118l20.604,3.008l151.565-22.126l0,0V151.565C428.683,67.858,360.824,0,277.117,0z"/>
<path style="fill:#F3F5E6;" d="M428.683,467.748H125.552c-12.22,0-22.126,9.906-22.126,22.126l0,0
	c0,12.22,9.906,22.126,22.126,22.126h303.131c12.22,0,22.126-9.906,22.126-22.126l0,0
	C450.809,477.654,440.903,467.748,428.683,467.748z"/>
<path style="fill:#D7D9CC;" d="M428.683,467.748h-41.207c12.22,0,22.126,9.906,22.126,22.126l0,0
	c0,12.22-9.906,22.126-22.126,22.126h41.207c12.22,0,22.126-9.906,22.126-22.126l0,0
	C450.809,477.654,440.903,467.748,428.683,467.748z"/>
<g>
	<path style="fill:#3B484A;" d="M194.182,239.673c-4.268,0-7.726-3.459-7.726-7.726v-15.01c0-4.267,3.458-7.726,7.726-7.726
		c4.268,0,7.726,3.459,7.726,7.726v15.01C201.908,236.213,198.449,239.673,194.182,239.673z"/>
	<path style="fill:#3B484A;" d="M360.052,239.673c-4.268,0-7.726-3.459-7.726-7.726v-15.01c0-4.267,3.458-7.726,7.726-7.726
		c4.268,0,7.726,3.459,7.726,7.726v15.01C367.779,236.213,364.32,239.673,360.052,239.673z"/>
	<path style="fill:#3B484A;" d="M277.117,247.684c-10.207,0-19.789-4.264-26.287-11.698c-2.809-3.213-2.481-8.093,0.731-10.902
		c3.213-2.808,8.094-2.482,10.902,0.731c3.564,4.077,8.905,6.415,14.653,6.415c5.748,0,11.089-2.339,14.653-6.415
		c2.807-3.213,7.688-3.542,10.902-0.731c3.212,2.808,3.541,7.689,0.731,10.902C296.906,243.421,287.324,247.684,277.117,247.684z"/>
</g>
<g>
</g>
<g>
</g>
<g>
</g>
<g>
</g>
<g>
</g>
<g>
</g>
<g>
</g>
<g>
</g>
<g>
</g>
<g>
</g>
<g>
</g>
<g>
</g>
<g>
</g>
<g>
</g>
<g>
</g>
</svg>
