<?xml version="1.0" encoding="iso-8859-1"?>
<!-- Generator: Adobe Illustrator 19.0.0, SVG Export Plug-In . SVG Version: 6.00 Build 0)  -->
<svg version="1.1" id="Capa_1" xmlns="http://www.w3.org/2000/svg" xmlns:xlink="http://www.w3.org/1999/xlink" x="0px" y="0px"
	 viewBox="0 0 512 512" style="enable-background:new 0 0 512 512;" xml:space="preserve">
<path style="fill:#BDBFB4;" d="M322.512,130.234L19.907,432.84c-18.056,18.056-18.056,47.332,0,65.388
	c18.056,18.056,46.929,18.512,64.986,0.456c8.192-8.192,9.937-20.389,5.235-30.288l0.002,0.002c9.898,4.7,22.094,2.954,30.285-5.237
	c8.192-8.192,9.937-20.389,5.235-30.288l0.002,0.002c9.898,4.7,22.094,2.954,30.285-5.237c8.192-8.192,9.937-20.389,5.235-30.288
	l0.002,0.002c9.898,4.7,22.094,2.954,30.285-5.237c8.192-8.192,9.937-20.389,5.235-30.288l0.002,0.002
	c9.898,4.7,22.094,2.954,30.285-5.237c8.192-8.192,9.937-20.389,5.235-30.288l0.002,0.002c9.898,4.7,22.094,2.954,30.285-5.237
	c8.192-8.192,9.937-20.389,5.235-30.288l0.002,0.002c9.898,4.7,22.094,2.954,30.285-5.237c8.192-8.192,9.937-20.389,5.235-30.288
	l0.002,0.002c9.898,4.7,22.094,2.954,30.285-5.237c8.192-8.192,9.937-20.389,5.235-30.288l0.002,0.002
	c9.898,4.7,22.094,2.954,30.285-5.237c8.192-8.192,9.937-20.389,5.235-30.288l-8.478-44.41L322.512,130.234z"/>
<path style="fill:#D7D9CC;" d="M40.51,453.443l302.605-302.605l25.92,5.723l-3.2-16.761l-43.323-9.565L19.908,432.84
	c-18.056,18.056-18.056,47.332,0,65.388c3.625,3.625,7.691,6.528,12.013,8.727C23.173,489.616,26.029,467.923,40.51,453.443z"/>
<path style="fill:#A8503C;" d="M441.793,10.954L322.512,130.234l52.888,52.888L494.681,63.842c14.605-14.605,14.605-38.284,0-52.888
	l0,0C480.076-3.651,456.398-3.651,441.793,10.954z"/>
<g>
	<circle style="fill:#BDBFB4;" cx="446.48" cy="59.153" r="13.526"/>
	<circle style="fill:#BDBFB4;" cx="391.2" cy="114.432" r="13.526"/>
</g>
<g>
</g>
<g>
</g>
<g>
</g>
<g>
</g>
<g>
</g>
<g>
</g>
<g>
</g>
<g>
</g>
<g>
</g>
<g>
</g>
<g>
</g>
<g>
</g>
<g>
</g>
<g>
</g>
<g>
</g>
</svg>
