<?xml version="1.0" encoding="iso-8859-1"?>
<!-- Generator: Adobe Illustrator 19.0.0, SVG Export Plug-In . SVG Version: 6.00 Build 0)  -->
<svg version="1.1" id="Capa_1" xmlns="http://www.w3.org/2000/svg" xmlns:xlink="http://www.w3.org/1999/xlink" x="0px" y="0px"
	 viewBox="0 0 512 512" style="enable-background:new 0 0 512 512;" xml:space="preserve">
<path style="fill:#F3F5E6;" d="M457.107,362.838L457.107,362.838c-13.969-8.661-19.202-19.996-14.215-30.796l0,0
	c10.519-22.788-24.503-44.502-71.774-44.502l0,0c-22.404,0-43.589-5.045-57.558-13.706l0,0c-29.473-18.274-85.644-18.274-115.117,0
	l0,0c-13.969,8.661-35.154,13.706-57.558,13.706l0,0c-47.271,0-82.293,21.714-71.774,44.502l0,0
	c4.985,10.8-0.247,22.135-14.215,30.796l0,0c-29.473,18.274-16.974,45.352,25.615,55.493l0,0
	c20.185,4.807,34.846,13.896,39.832,24.697l0,0c10.519,22.788,61.127,34.838,103.717,24.697l0,0c20.185-4.807,43.699-4.807,63.885,0
	l0,0c42.59,10.141,93.197-1.909,103.717-24.697l0,0c4.985-10.8,19.646-19.89,39.832-24.697l0,0
	C474.081,408.19,486.58,381.112,457.107,362.838z"/>
<path style="fill:#D7D9CC;" d="M158.981,440.341L158.981,440.341c-5.458-11.824-21.51-21.777-43.611-27.039l0,0
	c-46.63-11.103-60.315-40.75-28.046-60.757l0,0c15.294-9.483,21.023-21.892,15.564-33.718l0,0
	c-4.65-10.073-1.168-19.954,8.039-28.157c-30.886,6.805-49.944,23.767-41.818,41.372l0,0c4.985,10.8-0.247,22.135-14.215,30.796l0,0
	c-29.473,18.274-16.974,45.352,25.615,55.493l0,0c20.185,4.807,34.846,13.896,39.832,24.697l0,0
	c9.728,21.073,53.741,32.963,93.992,26.611C187.822,465.672,165.771,455.051,158.981,440.341z"/>
<g>
	<path style="fill:#F3F5E6;" d="M472.67,271.233c26.14-31.843,75.004-110.68-2.785-188.469S313.259,53.84,281.417,79.98
		c-4.939,4.055-2.104,12.061,4.286,12.11l14.219,0.107c8.865,0.067,16.034,7.237,16.101,16.101l0.19,25.074
		c0.028,3.732,3.047,6.751,6.779,6.779l25.074,0.19c8.865,0.067,16.034,7.237,16.101,16.101l0.19,25.074
		c0.028,3.732,3.047,6.751,6.78,6.78l25.074,0.19c8.865,0.067,16.034,7.237,16.101,16.101l0.19,25.074
		c0.028,3.732,3.047,6.751,6.78,6.78l25.074,0.19c8.865,0.067,16.034,7.237,16.101,16.101l0.107,14.219
		C460.608,273.337,468.615,276.172,472.67,271.233z"/>
	<path style="fill:#F3F5E6;" d="M39.33,271.233c-26.14-31.843-75.004-110.68,2.785-188.469S198.74,53.84,230.583,79.98
		c4.939,4.055,2.104,12.061-4.286,12.11l-14.219,0.107c-8.865,0.067-16.034,7.237-16.101,16.101l-0.19,25.074
		c-0.028,3.732-3.047,6.751-6.779,6.779l-25.074,0.19c-8.865,0.067-16.034,7.237-16.101,16.101l-0.19,25.074
		c-0.028,3.732-3.047,6.751-6.78,6.78l-25.074,0.19c-8.865,0.067-16.034,7.237-16.101,16.101l-0.19,25.074
		c-0.028,3.732-3.047,6.751-6.78,6.78l-25.074,0.19c-8.865,0.067-16.034,7.237-16.101,16.101l-0.107,14.219
		C51.392,273.337,43.385,276.172,39.33,271.233z"/>
</g>
<g>
	<path style="fill:#D7D9CC;" d="M52.812,72.858c-3.565,3.047-7.132,6.341-10.697,9.906C-35.674,160.554,13.19,239.39,39.33,271.233
		c4.055,4.939,12.061,2.104,12.11-4.286l0.107-14.219c0.026-3.383,1.091-6.515,2.885-9.104
		C29.135,209.987-6.191,141.881,52.812,72.858z"/>
	<path style="fill:#D7D9CC;" d="M459.188,72.858c3.565,3.047,7.132,6.341,10.697,9.906c77.789,77.789,28.924,156.626,2.785,188.469
		c-4.055,4.939-12.061,2.104-12.11-4.286l-0.107-14.219c-0.026-3.383-1.091-6.515-2.884-9.104
		C482.865,209.987,518.191,141.881,459.188,72.858z"/>
</g>
<ellipse style="fill:#FEC300;" cx="256" cy="363.314" rx="100.875" ry="54.981"/>
<path style="fill:#FB8D4B;" d="M178.814,363.313c0-28.177,38.903-51.4,89.033-54.596c-3.887-0.247-7.839-0.379-11.847-0.379
	c-55.715,0-100.88,24.613-100.88,54.976s45.166,54.976,100.88,54.976c4.008,0,7.96-0.132,11.847-0.379
	C217.715,414.713,178.814,391.49,178.814,363.313z"/>
<g>
	<path style="fill:#3B484A;" d="M199.606,373.418c-4.268,0-7.726-3.459-7.726-7.726v-10.207c0-4.267,3.458-7.726,7.726-7.726
		c4.268,0,7.726,3.459,7.726,7.726v10.207C207.332,369.959,203.873,373.418,199.606,373.418z"/>
	<path style="fill:#3B484A;" d="M312.393,373.418c-4.268,0-7.726-3.459-7.726-7.726v-10.207c0-4.267,3.458-7.726,7.726-7.726
		c4.268,0,7.726,3.459,7.726,7.726v10.207C320.119,369.959,316.661,373.418,312.393,373.418z"/>
	<path style="fill:#3B484A;" d="M256,378.866c-7.654,0-14.847-3.207-19.735-8.8c-2.809-3.213-2.481-8.094,0.732-10.902
		c3.211-2.807,8.093-2.481,10.901,0.732c1.953,2.234,4.907,3.517,8.101,3.517s6.148-1.282,8.1-3.516
		c2.809-3.214,7.691-3.541,10.902-0.732c3.213,2.808,3.542,7.689,0.733,10.902C270.848,375.659,263.655,378.866,256,378.866z"/>
</g>
<g>
</g>
<g>
</g>
<g>
</g>
<g>
</g>
<g>
</g>
<g>
</g>
<g>
</g>
<g>
</g>
<g>
</g>
<g>
</g>
<g>
</g>
<g>
</g>
<g>
</g>
<g>
</g>
<g>
</g>
</svg>
