<?xml version="1.0" encoding="iso-8859-1"?>
<!-- Generator: Adobe Illustrator 19.0.0, SVG Export Plug-In . SVG Version: 6.00 Build 0)  -->
<svg version="1.1" id="Capa_1" xmlns="http://www.w3.org/2000/svg" xmlns:xlink="http://www.w3.org/1999/xlink" x="0px" y="0px"
	 viewBox="0 0 511.999 511.999" style="enable-background:new 0 0 511.999 511.999;" xml:space="preserve">
<path style="fill:#FDCA74;" d="M17.181,259.274C-9.796,373.901,83.285,379.417,256,379.417s265.796-5.516,238.82-120.144
	l-72.999-64.638H137.065L17.181,259.274z"/>
<path style="fill:#E6B25B;" d="M68.997,251.265l105.032-56.63h-36.964L17.181,259.274C-9.796,373.901,83.285,379.417,256,379.417
	c11.421,0,22.483-0.026,33.195-0.104C127.25,378.175,42.077,365.654,68.997,251.265z"/>
<path style="fill:#A8503C;" d="M256,253.533c8.075,0,16.149,2.034,23.429,6.101l0,0c14.561,8.134,32.299,8.134,46.86,0l0,0
	c14.561-8.134,32.299-8.134,46.86,0l0,0c14.561,8.134,32.299,8.134,46.86,0l0,0c14.561-8.134,32.299-8.134,46.86,0l0,0
	c1.82,1.017,3.933,1.779,6.239,2.335c22.715,5.479,43.315-15.388,38.065-38.158c-14.505-62.904-76.803-91.23-255.174-91.23
	S15.331,160.908,0.826,223.812c-5.25,22.769,15.35,43.637,38.065,38.158c2.305-0.556,4.418-1.319,6.239-2.335l0,0
	c14.561-8.134,32.299-8.134,46.86,0l0,0c14.561,8.134,32.299,8.134,46.86,0l0,0c14.561-8.134,32.299-8.134,46.86,0l0,0
	c14.561,8.134,32.299,8.134,46.86,0l0,0C239.851,255.567,247.926,253.533,256,253.533z"/>
<path style="fill:#993E29;" d="M52.335,223.812c13.784-59.775,70.735-88.323,229.419-91.015c-8.307-0.141-16.881-0.214-25.755-0.214
	c-178.371,0-240.669,28.325-255.174,91.23c-5.25,22.769,15.351,43.637,38.065,38.158c2.305-0.556,4.418-1.319,6.239-2.335l0,0
	c5.153-2.879,10.707-4.717,16.375-5.559C53.775,246.696,49.638,235.51,52.335,223.812z"/>
<g>
	<path style="fill:#3B484A;" d="M167.223,329.345c-4.267,0-7.726-3.459-7.726-7.726v-16.068c0-4.267,3.459-7.726,7.726-7.726
		s7.726,3.459,7.726,7.726v16.068C174.95,325.886,171.49,329.345,167.223,329.345z"/>
	<path style="fill:#3B484A;" d="M344.777,329.345c-4.267,0-7.726-3.459-7.726-7.726v-16.068c0-4.267,3.459-7.726,7.726-7.726
		c4.267,0,7.726,3.459,7.726,7.726v16.068C352.503,325.886,349.044,329.345,344.777,329.345z"/>
	<path style="fill:#3B484A;" d="M256,337.922c-10.77,0-20.876-4.497-27.729-12.336c-2.808-3.213-2.481-8.094,0.732-10.902
		c3.213-2.808,8.093-2.481,10.902,0.732c3.918,4.482,9.785,7.054,16.095,7.054c6.31,0,12.176-2.571,16.095-7.054
		c2.809-3.214,7.689-3.541,10.902-0.732c3.213,2.808,3.541,7.689,0.732,10.902C276.876,333.425,266.769,337.922,256,337.922z"/>
</g>
<g>
</g>
<g>
</g>
<g>
</g>
<g>
</g>
<g>
</g>
<g>
</g>
<g>
</g>
<g>
</g>
<g>
</g>
<g>
</g>
<g>
</g>
<g>
</g>
<g>
</g>
<g>
</g>
<g>
</g>
</svg>
