<?xml version="1.0" encoding="iso-8859-1"?>
<!-- Generator: Adobe Illustrator 19.0.0, SVG Export Plug-In . SVG Version: 6.00 Build 0)  -->
<svg version="1.1" id="Capa_1" xmlns="http://www.w3.org/2000/svg" xmlns:xlink="http://www.w3.org/1999/xlink" x="0px" y="0px"
	 viewBox="0 0 512 512" style="enable-background:new 0 0 512 512;" xml:space="preserve">
<path style="fill:#FB8D4B;" d="M123.898,23.359L123.898,23.359c-28.531,17.037-37.85,53.976-20.814,82.508l105.469,176.632
	l103.321-61.694L206.406,44.173C189.37,15.641,152.43,6.323,123.898,23.359z"/>
<path style="fill:#E86D24;" d="M218.856,261.896L113.387,85.264c-8.791-14.722-10.548-31.678-6.286-46.988
	c-14.64,18.996-17.057,45.751-4.016,67.591l105.469,176.632l103.321-61.694l-6.361-10.654L218.856,261.896z"/>
<path style="fill:#FDCA74;" d="M273.437,110.234c0,0-115.336-19.207-156.958,83.812v51.296l144.784,20.152l37.281-40.304
	L273.437,110.234z"/>
<path style="fill:#E6B25B;" d="M147.384,210.422c27.764-68.721,83.041-91.813,126.35-98.828l-0.297-1.359
	c0,0-115.336-19.207-156.958,83.812v51.296l30.905,4.302V210.422z"/>
<path style="fill:#FB8D4B;" d="M375.311,3.502L375.311,3.502c-31.305-11.147-65.72,5.194-76.867,36.5l-69.009,193.805
	l113.367,40.367l69.009-193.805C422.958,49.064,406.617,14.649,375.311,3.502z"/>
<path style="fill:#E86D24;" d="M250.039,233.807l69.009-193.805c7.538-21.168,25.717-35.478,46.377-39.091
	c-28.358-4.959-56.998,11.057-66.98,39.091l-69.009,193.805l113.367,40.367l2.318-6.511L250.039,233.807z"/>
<g>
	<path style="fill:#FEEA61;" d="M357.179,54.426c-18.571-6.613-37.492-1.115-42.261,12.281c-0.014,0.042-0.03,0.083-0.044,0.126
		c-1.843,5.294,3.107,10.569,8.526,9.13c7.505-1.991,16.569-1.627,25.552,1.572c8.982,3.199,16.238,8.644,20.795,14.931
		c3.29,4.539,10.46,3.58,12.378-1.687c0.015-0.041,0.03-0.083,0.045-0.126C386.938,77.258,375.749,61.039,357.179,54.426z"/>
	<path style="fill:#FEEA61;" d="M333.062,122.158c-18.571-6.613-37.492-1.115-42.261,12.281c-0.014,0.042-0.03,0.083-0.044,0.126
		c-1.843,5.294,3.107,10.569,8.526,9.131c7.505-1.991,16.569-1.627,25.552,1.572c8.982,3.199,16.238,8.644,20.795,14.931
		c3.29,4.539,10.46,3.58,12.378-1.687c0.015-0.041,0.03-0.083,0.045-0.126C362.82,144.99,351.633,128.77,333.062,122.158z"/>
	<path style="fill:#FEEA61;" d="M151.611,69.771c-16.925,10.106-24.737,28.196-17.447,40.404c0.023,0.038,0.045,0.076,0.069,0.114
		c2.908,4.793,10.127,4.336,12.469-0.758c3.244-7.055,9.298-13.811,17.485-18.699c8.187-4.888,17.005-7.013,24.755-6.523
		c5.595,0.353,9.422-5.784,6.582-10.618c-0.023-0.038-0.045-0.076-0.068-0.114C188.166,61.369,168.537,59.665,151.611,69.771z"/>
</g>
<path style="fill:#D9A856;" d="M406.046,194.047l-14.636,15.674l-21.219-22.724c-2.602-2.787-7.021-2.787-9.623,0l-21.219,22.724
	l-21.219-22.724c-2.602-2.787-7.021-2.787-9.623,0l-21.219,22.724l-21.219-22.724c-2.602-2.787-7.021-2.787-9.623,0l-21.219,22.724
	l-21.219-22.724c-2.602-2.787-7.021-2.787-9.623,0l-21.219,22.724l-21.219-22.724c-2.602-2.787-7.021-2.787-9.623,0l-21.219,22.724
	l-14.636-15.674c-4.077-4.367-11.394-1.481-11.394,4.493v282.312c0,17.203,13.946,31.149,31.149,31.149h250.057
	c17.203,0,31.149-13.946,31.149-31.149V198.539C417.44,192.565,410.122,189.68,406.046,194.047z"/>
<g>
	<path style="fill:#3B484A;" d="M187.113,374.421c-4.267,0-7.726-3.459-7.726-7.726v-13.419c0-4.267,3.459-7.726,7.726-7.726
		s7.726,3.459,7.726,7.726v13.419C194.839,370.962,191.38,374.421,187.113,374.421z"/>
	<path style="fill:#3B484A;" d="M335.411,374.421c-4.267,0-7.726-3.459-7.726-7.726v-13.419c0-4.267,3.459-7.726,7.726-7.726
		c4.267,0,7.726,3.459,7.726,7.726v13.419C343.138,370.962,339.678,374.421,335.411,374.421z"/>
	<path style="fill:#3B484A;" d="M261.262,381.585c-9.362,0-18.153-3.914-24.119-10.739c-2.808-3.213-2.481-8.094,0.732-10.902
		c3.213-2.808,8.094-2.481,10.902,0.732c3.031,3.468,7.581,5.456,12.484,5.456c4.903,0,9.453-1.988,12.484-5.456
		c2.809-3.214,7.689-3.541,10.902-0.732c3.213,2.808,3.541,7.689,0.732,10.902C279.415,377.671,270.624,381.585,261.262,381.585z"/>
</g>
<g>
</g>
<g>
</g>
<g>
</g>
<g>
</g>
<g>
</g>
<g>
</g>
<g>
</g>
<g>
</g>
<g>
</g>
<g>
</g>
<g>
</g>
<g>
</g>
<g>
</g>
<g>
</g>
<g>
</g>
</svg>
