<?xml version="1.0" encoding="iso-8859-1"?>
<!-- Generator: Adobe Illustrator 19.0.0, SVG Export Plug-In . SVG Version: 6.00 Build 0)  -->
<svg version="1.1" id="Capa_1" xmlns="http://www.w3.org/2000/svg" xmlns:xlink="http://www.w3.org/1999/xlink" x="0px" y="0px"
	 viewBox="0 0 512 512" style="enable-background:new 0 0 512 512;" xml:space="preserve">
<path style="fill:#BDBFB4;" d="M256,44.787l-32.391,26.122L256,126.287c0,0,187.033-108.668,255.996,83.591V148.23
	C511.996,54.191,398.104-37.759,256,44.787z"/>
<g>
	<path style="fill:#A4A69C;" d="M0.004,209.878C68.966,17.62,256,126.287,256,126.287V44.787
		C113.896-37.759,0.004,54.191,0.004,148.23V209.878z"/>
	<path style="fill:#A4A69C;" d="M511.996,209.878V148.23c0,0-18.808,164.046-255.996,265.4l-32.391,26.122L256,499.311
		C516.175,407.361,511.996,209.878,511.996,209.878z"/>
</g>
<path style="fill:#BDBFB4;" d="M0.004,209.878c0,0-4.179,197.483,255.996,289.432v-85.68C18.812,312.276,0.004,148.23,0.004,148.23
	V209.878z"/>
<g>
</g>
<g>
</g>
<g>
</g>
<g>
</g>
<g>
</g>
<g>
</g>
<g>
</g>
<g>
</g>
<g>
</g>
<g>
</g>
<g>
</g>
<g>
</g>
<g>
</g>
<g>
</g>
<g>
</g>
</svg>
