<?xml version="1.0" encoding="iso-8859-1"?>
<!-- Generator: Adobe Illustrator 19.0.0, SVG Export Plug-In . SVG Version: 6.00 Build 0)  -->
<svg version="1.1" id="Capa_1" xmlns="http://www.w3.org/2000/svg" xmlns:xlink="http://www.w3.org/1999/xlink" x="0px" y="0px"
	 viewBox="0 0 512 512" style="enable-background:new 0 0 512 512;" xml:space="preserve">
<circle style="fill:#FA7578;" cx="256.001" cy="253.579" r="227.196"/>
<rect x="230.246" y="28.801" style="fill:#FDCA74;" width="51.509" height="454.403"/>
<g>
	<polygon style="fill:#D9A856;" points="120.017,340.475 39.103,340.475 70.009,391.984 120.017,391.984 137.118,371.752 	"/>
	<polygon style="fill:#D9A856;" points="120.017,230.246 28.802,230.246 28.802,281.755 120.017,281.755 137.118,261.523 	"/>
	<polygon style="fill:#D9A856;" points="120.017,120.016 70.009,120.016 70.009,171.525 120.017,171.525 137.118,151.294 	"/>
	<polygon style="fill:#D9A856;" points="391.985,340.475 472.898,340.475 441.993,391.984 391.985,391.984 374.884,371.752 	"/>
	<polygon style="fill:#D9A856;" points="391.985,230.246 483.2,230.246 483.2,281.755 391.985,281.755 374.884,261.523 	"/>
	<polygon style="fill:#D9A856;" points="391.985,120.016 441.993,120.016 441.993,171.525 391.985,171.525 374.884,151.294 	"/>
	<polygon style="fill:#D9A856;" points="340.476,120.016 171.526,120.016 145.771,151.294 171.526,171.525 340.476,171.525 
		366.23,151.294 	"/>
	<polygon style="fill:#D9A856;" points="340.476,231.736 171.526,231.736 145.771,263.014 171.526,283.245 340.476,283.245 
		366.23,263.014 	"/>
	<polygon style="fill:#D9A856;" points="340.476,340.475 171.526,340.475 145.771,371.752 171.526,391.984 340.476,391.984 
		366.23,371.752 	"/>
</g>
<g>
	<polygon style="fill:#FDCA74;" points="171.526,483.199 120.017,441.992 120.017,70.008 171.526,70.008 	"/>
	<polygon style="fill:#FDCA74;" points="391.985,441.992 340.476,483.199 340.476,70.008 391.985,70.008 	"/>
</g>
<g>
	<path style="fill:#E6B25B;" d="M120.017,151.294c1.353-3.943,2.55-7.949,3.547-12.025c4.16-17,18.689-29.19,36.152-30.335
		c3.967-0.26,7.905-0.71,11.81-1.304V70.008h-51.509V151.294z"/>
	<path style="fill:#E6B25B;" d="M171.526,417.415c-13.206-19.003-30.873-34.303-51.509-44.647v69.225l51.509,41.207V417.415z"/>
	<path style="fill:#E6B25B;" d="M281.755,432.563c-8.48-1.609-17.099-2.438-25.755-2.438c-8.657,0-17.274,0.829-25.755,2.438V483.2
		h51.509V432.563z"/>
	<path style="fill:#E6B25B;" d="M230.246,84.001c0.72-0.507,1.446-1.002,2.158-1.524c6.892-5.053,15.051-7.724,23.596-7.724
		c8.546,0,16.706,2.671,23.597,7.724c0.711,0.521,1.437,1.017,2.157,1.524v-55.2h-51.509V84.001z"/>
	<path style="fill:#E6B25B;" d="M340.476,107.629c3.905,0.594,7.842,1.044,11.81,1.304c17.464,1.145,31.992,13.336,36.153,30.337
		c0.997,4.075,2.194,8.081,3.546,12.022V70.008h-51.509L340.476,107.629L340.476,107.629z"/>
	<path style="fill:#E6B25B;" d="M391.985,372.768c-20.637,10.345-38.304,25.646-51.509,44.647v65.784l51.509-41.207V372.768z"/>
</g>
<path style="fill:#FDCA74;" d="M305.844,509.799c-0.003,0-0.002,0-0.004,0c-10.638,0-21.223-1.514-31.466-4.5
	c-11.944-3.482-24.804-3.482-36.748,0c-10.244,2.986-20.831,4.5-31.467,4.5c-37.639,0-72.595-18.686-93.508-49.986
	c-6.957-10.41-16.691-18.579-28.151-23.621c-22.043-9.698-40.059-25.849-52.099-46.704c-12.041-20.857-17.02-44.534-14.398-68.472
	c1.363-12.446-0.843-24.96-6.381-36.19c-10.651-21.599-14.071-45.55-9.889-69.267c4.182-23.716,15.587-45.054,32.983-61.707
	c9.045-8.658,15.398-19.663,18.374-31.824c5.724-23.392,18.5-43.938,36.948-59.419c18.447-15.479,40.9-24.494,64.931-26.069
	c12.494-0.819,24.435-5.165,34.533-12.569c19.42-14.24,42.415-21.768,66.497-21.768s47.076,7.528,66.498,21.768
	c10.097,7.404,22.038,11.75,34.531,12.569c24.031,1.575,46.484,10.589,64.931,26.069c18.448,15.48,31.225,36.025,36.948,59.418
	c2.977,12.162,9.33,23.167,18.374,31.824c17.397,16.654,28.802,37.992,32.983,61.708c4.183,23.717,0.762,47.669-9.889,69.267
	c-5.538,11.229-7.744,23.744-6.382,36.19c2.622,23.938-2.357,47.616-14.398,68.471c-12.041,20.857-30.056,37.007-52.099,46.705
	c-11.461,5.043-21.195,13.211-28.151,23.62C378.436,491.112,343.479,509.799,305.844,509.799z M256.001,455.879
	c10.653,0,21.241,1.511,31.47,4.494c5.985,1.745,12.166,2.63,18.37,2.63c21.975,0.001,42.386-10.911,54.598-29.188
	c11.912-17.829,28.585-31.82,48.215-40.456c26.358-11.598,41.96-38.622,38.824-67.248c-2.334-21.318,1.445-42.75,10.929-61.983
	c12.736-25.827,7.317-56.558-13.484-76.471c-15.49-14.827-26.372-33.675-31.469-54.506c-6.845-27.973-30.75-48.031-59.485-49.914
	c-21.398-1.402-41.849-8.846-59.142-21.526c-11.34-8.315-24.766-12.709-38.826-12.709c-14.061,0-27.486,4.395-38.825,12.709
	c-17.295,12.68-37.746,20.125-59.144,21.527c-28.736,1.883-52.64,21.942-59.485,49.913c-5.097,20.83-15.979,39.678-31.47,54.507
	c-20.801,19.913-26.22,50.645-13.484,76.471c9.485,19.233,13.264,40.666,10.929,61.983c-3.136,28.626,12.467,55.65,38.825,67.248
	c19.628,8.636,36.3,22.626,48.215,40.457c12.212,18.276,32.622,29.188,54.598,29.188c6.203,0,12.384-0.885,18.37-2.63
	C234.759,457.39,245.348,455.879,256.001,455.879z"/>
<g>
</g>
<g>
</g>
<g>
</g>
<g>
</g>
<g>
</g>
<g>
</g>
<g>
</g>
<g>
</g>
<g>
</g>
<g>
</g>
<g>
</g>
<g>
</g>
<g>
</g>
<g>
</g>
<g>
</g>
</svg>
