<?xml version="1.0" encoding="iso-8859-1"?>
<!-- Generator: Adobe Illustrator 19.0.0, SVG Export Plug-In . SVG Version: 6.00 Build 0)  -->
<svg version="1.1" id="Capa_1" xmlns="http://www.w3.org/2000/svg" xmlns:xlink="http://www.w3.org/1999/xlink" x="0px" y="0px"
	 viewBox="0 0 512 512" style="enable-background:new 0 0 512 512;" xml:space="preserve">
<g>
	<path style="fill:#F3F5E6;" d="M352.169,0H159.835c-14.668,0-26.557,11.89-26.557,26.557v42.301l125.501,33.319l119.948-33.319
		V26.557C378.726,11.89,366.836,0,352.169,0z"/>
	<path style="fill:#F3F5E6;" d="M295.429,179.922l-113.284-49.978L49.98,179.922v301.097c0,17.11,13.87,30.981,30.981,30.981
		h214.468l83.297-166.039L295.429,179.922z"/>
</g>
<path style="fill:#D7D9CC;" d="M378.726,141.05l-83.297,38.872V512h135.614c17.11,0,30.981-13.87,30.981-30.981V179.922
	L378.726,141.05z"/>
<rect x="49.976" y="269.887" style="fill:#80E2FF;" width="245.451" height="152.158"/>
<g>
	<path style="fill:#3B484A;" d="M106.518,350.166c-4.268,0-7.726-3.459-7.726-7.726V330.46c0-4.267,3.458-7.726,7.726-7.726
		s7.726,3.459,7.726,7.726v11.979C114.244,346.706,110.786,350.166,106.518,350.166z"/>
	<path style="fill:#3B484A;" d="M238.893,350.166c-4.268,0-7.726-3.459-7.726-7.726V330.46c0-4.267,3.458-7.726,7.726-7.726
		s7.726,3.459,7.726,7.726v11.979C246.619,346.706,243.161,350.166,238.893,350.166z"/>
	<path style="fill:#3B484A;" d="M172.705,356.56c-8.597,0-16.671-3.597-22.153-9.869c-2.809-3.213-2.481-8.094,0.732-10.902
		c3.212-2.808,8.094-2.48,10.901,0.732c2.549,2.914,6.381,4.586,10.519,4.586s7.971-1.672,10.519-4.586
		c2.808-3.213,7.69-3.541,10.901-0.732c3.213,2.808,3.542,7.689,0.732,10.902C189.376,352.963,181.302,356.56,172.705,356.56z"/>
</g>
<polygon style="fill:#55C2E3;" points="378.726,68.859 295.429,179.922 462.024,179.922 "/>
<polygon style="fill:#80E2FF;" points="49.98,179.922 133.278,68.859 378.726,68.859 295.429,179.922 "/>
<rect x="295.427" y="269.887" style="fill:#55C2E3;" width="166.591" height="152.158"/>
<g>
</g>
<g>
</g>
<g>
</g>
<g>
</g>
<g>
</g>
<g>
</g>
<g>
</g>
<g>
</g>
<g>
</g>
<g>
</g>
<g>
</g>
<g>
</g>
<g>
</g>
<g>
</g>
<g>
</g>
</svg>
