<?xml version="1.0" encoding="iso-8859-1"?>
<!-- Generator: Adobe Illustrator 19.0.0, SVG Export Plug-In . SVG Version: 6.00 Build 0)  -->
<svg version="1.1" id="Capa_1" xmlns="http://www.w3.org/2000/svg" xmlns:xlink="http://www.w3.org/1999/xlink" x="0px" y="0px"
	 viewBox="0 0 512 512" style="enable-background:new 0 0 512 512;" xml:space="preserve">
<path style="fill:#FEC300;" d="M50.65,148.572c-17.896,0-32.404,14.508-32.404,32.404v108.658l136.98,31.295l149.221-31.295
	l35.1-141.063H50.65z"/>
<path style="fill:#FEEA61;" d="M459.181,148.572H339.019c-19.094,0-34.573,15.478-34.573,34.573v106.49l94.654,31.295l94.654-31.295
	v-106.49C493.754,164.05,478.276,148.572,459.181,148.572z"/>
<g>
	<path style="fill:#3B484A;" d="M342.358,232.367c-4.268,0-7.726-3.459-7.726-7.726v-10.27c0-4.267,3.458-7.726,7.726-7.726
		c4.268,0,7.726,3.459,7.726,7.726v10.27C350.084,228.907,346.626,232.367,342.358,232.367z"/>
	<path style="fill:#3B484A;" d="M455.843,232.367c-4.268,0-7.726-3.459-7.726-7.726v-10.27c0-4.267,3.458-7.726,7.726-7.726
		c4.268,0,7.726,3.459,7.726,7.726v10.27C463.569,228.907,460.111,232.367,455.843,232.367z"/>
	<path style="fill:#3B484A;" d="M399.1,237.848c-7.687,0-14.912-3.221-19.822-8.837c-2.809-3.212-2.481-8.093,0.731-10.902
		c3.211-2.808,8.091-2.482,10.902,0.731c1.975,2.259,4.959,3.555,8.188,3.555c3.229,0,6.213-1.296,8.188-3.555
		c2.808-3.213,7.688-3.541,10.902-0.731c3.212,2.808,3.541,7.689,0.731,10.902C414.012,234.627,406.788,237.848,399.1,237.848z"/>
</g>
<path style="fill:#4CC7B3;" d="M493.754,289.633H18.245c-12.208,0-20.967,11.764-17.469,23.459l0,0
	c8.936,29.871,36.418,50.336,67.597,50.336h375.252c31.179,0,58.662-20.465,67.597-50.336l0,0
	C514.722,301.397,505.962,289.633,493.754,289.633z"/>
<path style="fill:#2AAC92;" d="M52.286,313.093L52.286,313.093c-3.498-11.696,5.261-23.459,17.469-23.459H18.245
	c-12.208,0-20.967,11.763-17.469,23.459l0,0c8.936,29.871,36.418,50.336,67.597,50.336h51.509
	C88.704,363.428,61.222,342.964,52.286,313.093z"/>
<g>
</g>
<g>
</g>
<g>
</g>
<g>
</g>
<g>
</g>
<g>
</g>
<g>
</g>
<g>
</g>
<g>
</g>
<g>
</g>
<g>
</g>
<g>
</g>
<g>
</g>
<g>
</g>
<g>
</g>
</svg>
