<?xml version="1.0" encoding="iso-8859-1"?>
<!-- Generator: Adobe Illustrator 19.0.0, SVG Export Plug-In . SVG Version: 6.00 Build 0)  -->
<svg version="1.1" id="Capa_1" xmlns="http://www.w3.org/2000/svg" xmlns:xlink="http://www.w3.org/1999/xlink" x="0px" y="0px"
	 viewBox="0 0 512.003 512.003" style="enable-background:new 0 0 512.003 512.003;" xml:space="preserve">
<polygon style="fill:#BDBFB4;" points="75.542,436.462 39.616,432.119 0.001,486.208 25.928,486.076 25.796,512.003 79.884,472.388 
	"/>
<polygon style="fill:#B1B3A8;" points="39.616,432.119 24.218,453.143 58.861,487.786 79.884,472.388 75.542,436.462 "/>
<polygon style="fill:#FA7578;" points="108.18,403.823 70.148,401.587 39.616,432.119 79.884,472.388 110.417,441.856 "/>
<polygon style="fill:#F9545B;" points="108.18,403.823 87.541,402.61 88.564,420.002 58.031,450.535 79.884,472.388 
	110.417,441.856 "/>
<path style="fill:#F3F5E6;" d="M509.324,103.572c5.988-7.26,1.336-18.254-8.044-19.014c-5.687-0.462-10.202-4.976-10.663-10.663
	l-0.77-9.49c-0.462-5.687-4.976-10.202-10.663-10.663l-9.49-0.77c-5.687-0.462-10.202-4.976-10.663-10.663l-0.77-9.49
	c-0.462-5.687-4.976-10.202-10.663-10.663l-9.49-0.77c-5.687-0.462-10.202-4.976-10.663-10.663
	c-0.76-9.381-11.754-14.032-19.014-8.044c-13.613,11.229-29.689,31.094-26.248,60.811l21.65,44.683l44.68,21.649
	C478.229,133.261,498.095,117.186,509.324,103.572z"/>
<path style="fill:#D7D9CC;" d="M509.324,103.572c5.988-7.26,1.336-18.254-8.044-19.014c-2.391-0.194-4.57-1.112-6.333-2.524
	c-0.386,1.671-1.158,3.305-2.378,4.784c-11.229,13.613-31.094,29.689-60.811,26.248l-33.394-16.181l5.467,11.287l44.68,21.649
	C478.229,133.261,498.095,117.186,509.324,103.572z"/>
<path style="fill:#F3F5E6;" d="M425.481,152.852c23.294,140.949-100.681,236.494-315.064,289.005l-40.27-40.269
	C122.66,187.202,218.203,63.228,359.152,86.522l44.68,21.649L425.481,152.852z"/>
<path style="fill:#D7D9CC;" d="M425.481,152.852l-21.649-44.68l-14.721-7.133l14.516,29.959
	c23.293,140.949-100.681,236.494-315.064,289.005l21.853,21.853C324.802,389.344,448.776,293.801,425.481,152.852z"/>
<g>
	<path style="fill:#3B484A;" d="M204.021,222.84c-1.977,0-3.955-0.754-5.463-2.263c-3.017-3.017-3.017-7.909,0-10.926l8.404-8.404
		c3.017-3.017,7.91-3.017,10.926,0c3.017,3.017,3.017,7.909,0,10.926l-8.404,8.404C207.976,222.085,205.998,222.84,204.021,222.84z"
		/>
	<path style="fill:#3B484A;" d="M296.891,315.709c-1.977,0-3.955-0.754-5.463-2.263c-3.017-3.017-3.017-7.909,0-10.926l8.404-8.404
		c3.017-3.017,7.91-3.017,10.926,0c3.017,3.017,3.017,7.909,0,10.926l-8.404,8.404C300.846,314.955,298.868,315.709,296.891,315.709
		z"/>
	<path style="fill:#3B484A;" d="M261.148,280.195c-7.62,0-15.055-3.112-20.641-8.699c-6.043-6.043-9.191-14.248-8.636-22.513
		c0.285-4.258,3.953-7.479,8.226-7.192c4.258,0.286,7.477,3.969,7.191,8.227c-0.257,3.815,1.255,7.66,4.144,10.55
		s6.726,4.401,10.55,4.144c4.268-0.288,7.941,2.934,8.226,7.192c0.286,4.258-2.934,7.941-7.191,8.227
		C262.394,280.175,261.77,280.195,261.148,280.195z"/>
</g>
<path style="fill:#FA7578;" d="M448.513,129.82l-66.329-66.329c-6.359-6.359-16.671-6.359-23.031,0c-6.36,6.36-6.36,16.671,0,23.031
	l66.329,66.329c6.359,6.359,16.671,6.359,23.031,0C454.872,146.491,454.872,136.18,448.513,129.82z"/>
<path style="fill:#F9545B;" d="M448.512,129.821l-21.853-21.853c6.359,6.359,6.36,16.67,0,23.031
	c-6.359,6.359-16.671,6.359-23.031,0l21.853,21.853c6.359,6.359,16.671,6.359,23.031,0
	C454.872,146.491,454.872,136.18,448.512,129.821z"/>
<g>
</g>
<g>
</g>
<g>
</g>
<g>
</g>
<g>
</g>
<g>
</g>
<g>
</g>
<g>
</g>
<g>
</g>
<g>
</g>
<g>
</g>
<g>
</g>
<g>
</g>
<g>
</g>
<g>
</g>
</svg>
